{"title":"Megamind 3D (Stereoscopic Side-by-Side MKV)","uid":6671833,"size":5382097352,"categoryP":"video","categoryS":"3d","magnet":"?xt=urn:btih:00b6fae0abfd6446904c43a47664546037da6342&amp;dn=Megamind+3D+%28Stereoscopic+Side-by-Side+MKV%29&amp;tr=udp%3A%2F%2Ftracker.openbittorrent.com%3A80&amp;tr=udp%3A%2F%2Fopen.demonii.com%3A1337&amp;tr=udp%3A%2F%2Ftracker.coppersurfer.tk%3A6969&amp;tr=udp%3A%2F%2Fexodus.desync.com%3A6969","seeders":1,"leechers":1,"uploader":"L3G3ND","files":2,"time":1315902445,"description":"This is a stereoscopic 3D rip of Megamind, for new 3D TVs or computers with Nvidia 3D Vision. Tested with Stereoscopic Player. Enjoy!\n\nTitle: Megamind (2010)\nRated: PG\nRuntime: 95 Minutes\nGenre: Animation | Action | Comedy\n\nDescription:\nAfter super-villain Megamind (Ferrell) kills his good-guy nemesis, Metro Man (Pitt), he becomes bored since there is no one left to fight. He creates a new foe, Titan (Hill), who, instead of using his powers for good, sets out to destroy the world, positioning Megamind to save the day for the first time in his life.\n-From IMDB Page: http://www.imdb.com/title/tt1001526/\n\nGeneral\nUnique ID : 217748155768635732166373502937934187782 (0xA3D0C4F45150310EB5E537FBA979CD06)\nComplete name : [filepath]\\Megamind 3D.mkv\nFormat : Matroska\nFile size : 5.01 GiB\nDuration : 1h 35mn\nOverall bit rate : 7 478 Kbps\nEncoded date : UTC 2011-04-14 16:24:42\nWriting application : mkvmerge v4.5.0 ('Speed of Light') built on Feb 1 2011 02:10:32\nWriting library : libebml v1.2.0 + libmatroska v1.1.0\n\nVideo\nID : 1\nFormat : AVC\nFormat/Info : Advanced Video Codec\nFormat profile : &lt;a class=&quot;__cf_email__&quot; href=&quot;/cdn-cgi/l/email-protection&quot; data-cfemail=&quot;7b33121c133b374f554a&quot;&gt;[email&amp;#160;protected]&lt;/a&gt;&lt;script data-cfhash='f9e31' type=&quot;text/javascript&quot;&gt;\n/* &lt;![CDATA[ */!function(){try{var t=&quot;currentScript&quot;in document?document.currentScript:function(){for(var t=document.getElementsByTagName(&quot;script&quot;),e=t.length;e--;)if(t[e].getAttribute(&quot;data-cfhash&quot;))return t[e]}();if(t&amp;&amp;t.previousSibling){var e,r,n,i,c=t.previousSibling,a=c.getAttribute(&quot;data-cfemail&quot;);if(a){for(e=&quot;&quot;,r=parseInt(a.substr(0,2),16),n=2;a.length-n;n+=2)i=parseInt(a.substr(n,2),16)^r,e+=String.fromCharCode(i);e=document.createTextNode(e),c.parentNode.replaceChild(e,c)}t.parentNode.removeChild(t);}}catch(u){}}()/* ]]&gt; */&lt;/script&gt;\nFormat settings, CABAC : Yes\nFormat settings, ReFrames : 4 frames\nCodec ID : V_MPEG4/ISO/AVC\nDuration : 1h 35mn\nBit rate : 6 689 Kbps\nWidth : 1 920 pixels\nHeight : 1 080 pixels\nDisplay aspect ratio : 16:9\nFrame rate : 23.976 fps\nColor space : YUV\nChroma subsampling : 4:2:0\nBit depth : 8 bits\nScan type : Progressive\nBits/(Pixel*Frame) : 0.135\nStream size : 4.48 GiB (89%)\nWriting library : x264 core 114 r1924 08d04a4\nLanguage : English\n\nAudio\nID : 2\nFormat : AC-3\nFormat/Info : Audio Coding 3\nMode extension : CM (complete main)\nCodec ID : A_AC3\nDuration : 1h 35mn\nBit rate mode : Constant\nBit rate : 640 Kbps\nChannel(s) : 6 channels\nChannel positions : Front: L C R, Side: L R, LFE\nSampling rate : 48.0 KHz\nBit depth : 16 bits\nCompression mode : Lossy\nStream size : 439 MiB (9%)\nLanguage : English","torrent":{"xt":"urn:btih:00b6fae0abfd6446904c43a47664546037da6342","amp;dn":"Megamind+3D+%28Stereoscopic+Side-by-Side+MKV%29","amp;tr":["udp%3A%2F%2Ftracker.openbittorrent.com%3A80","udp%3A%2F%2Fopen.demonii.com%3A1337","udp%3A%2F%2Ftracker.coppersurfer.tk%3A6969","udp%3A%2F%2Fexodus.desync.com%3A6969"],"infoHash":"00b6fae0abfd6446904c43a47664546037da6342","infoHashBuffer":{"type":"Buffer","data":[0,182,250,224,171,253,100,70,144,76,67,164,118,100,84,96,55,218,99,66]},"announce":[],"urlList":[]}}